<mxfile host="app.diagrams.net" modified="2022-03-11T20:56:17.558Z" agent="5.0 (Windows NT 10.0; Win64; x64) AppleWebKit/537.36 (KHTML, like Gecko) Chrome/99.0.4844.51 Safari/537.36" etag="WMR2lWCAX8U6yq57vXar" version="17.1.2" type="github">
  <diagram id="R2lEEEUBdFMjLlhIrx00" name="Page-1">
    <mxGraphModel dx="1038" dy="579" grid="1" gridSize="10" guides="1" tooltips="1" connect="1" arrows="1" fold="1" page="1" pageScale="1" pageWidth="850" pageHeight="1100" math="0" shadow="0" extFonts="Permanent Marker^https://fonts.googleapis.com/css?family=Permanent+Marker">
      <root>
        <mxCell id="0" />
        <mxCell id="1" parent="0" />
        <mxCell id="U4yKZaJeTP_GyFQ07LBx-5" style="edgeStyle=orthogonalEdgeStyle;rounded=0;orthogonalLoop=1;jettySize=auto;html=1;exitX=1;exitY=0.5;exitDx=0;exitDy=0;endArrow=none;endFill=0;entryX=0;entryY=0.5;entryDx=0;entryDy=0;" edge="1" parent="1" source="U4yKZaJeTP_GyFQ07LBx-1" target="U4yKZaJeTP_GyFQ07LBx-4">
          <mxGeometry relative="1" as="geometry">
            <mxPoint x="350" y="350" as="targetPoint" />
          </mxGeometry>
        </mxCell>
        <mxCell id="U4yKZaJeTP_GyFQ07LBx-17" style="edgeStyle=none;rounded=0;orthogonalLoop=1;jettySize=auto;html=1;exitX=0.5;exitY=1;exitDx=0;exitDy=0;entryX=0.5;entryY=0;entryDx=0;entryDy=0;endArrow=none;endFill=0;" edge="1" parent="1" source="U4yKZaJeTP_GyFQ07LBx-1" target="U4yKZaJeTP_GyFQ07LBx-16">
          <mxGeometry relative="1" as="geometry" />
        </mxCell>
        <mxCell id="U4yKZaJeTP_GyFQ07LBx-31" style="edgeStyle=none;rounded=0;orthogonalLoop=1;jettySize=auto;html=1;exitX=0.5;exitY=0;exitDx=0;exitDy=0;entryX=0.5;entryY=1;entryDx=0;entryDy=0;endArrow=none;endFill=0;" edge="1" parent="1" source="U4yKZaJeTP_GyFQ07LBx-1" target="U4yKZaJeTP_GyFQ07LBx-29">
          <mxGeometry relative="1" as="geometry" />
        </mxCell>
        <mxCell id="U4yKZaJeTP_GyFQ07LBx-1" value="Medico" style="rounded=1;arcSize=10;whiteSpace=wrap;html=1;align=center;" vertex="1" parent="1">
          <mxGeometry x="170" y="330" width="100" height="40" as="geometry" />
        </mxCell>
        <mxCell id="U4yKZaJeTP_GyFQ07LBx-2" value="Especialidad" style="rounded=1;arcSize=0;whiteSpace=wrap;html=1;align=center;" vertex="1" parent="1">
          <mxGeometry x="560" y="330" width="100" height="40" as="geometry" />
        </mxCell>
        <mxCell id="U4yKZaJeTP_GyFQ07LBx-6" style="edgeStyle=orthogonalEdgeStyle;rounded=0;orthogonalLoop=1;jettySize=auto;html=1;exitX=1;exitY=0.5;exitDx=0;exitDy=0;endArrow=none;endFill=0;" edge="1" parent="1" source="U4yKZaJeTP_GyFQ07LBx-4" target="U4yKZaJeTP_GyFQ07LBx-2">
          <mxGeometry relative="1" as="geometry" />
        </mxCell>
        <mxCell id="U4yKZaJeTP_GyFQ07LBx-4" value="tiene" style="shape=rhombus;double=1;perimeter=rhombusPerimeter;whiteSpace=wrap;html=1;align=center;" vertex="1" parent="1">
          <mxGeometry x="365" y="320" width="120" height="60" as="geometry" />
        </mxCell>
        <mxCell id="U4yKZaJeTP_GyFQ07LBx-37" style="edgeStyle=none;rounded=0;orthogonalLoop=1;jettySize=auto;html=1;exitX=1;exitY=1;exitDx=0;exitDy=0;entryX=0;entryY=0;entryDx=0;entryDy=0;endArrow=none;endFill=0;" edge="1" parent="1" source="U4yKZaJeTP_GyFQ07LBx-7" target="U4yKZaJeTP_GyFQ07LBx-1">
          <mxGeometry relative="1" as="geometry" />
        </mxCell>
        <mxCell id="U4yKZaJeTP_GyFQ07LBx-7" value="rut" style="ellipse;whiteSpace=wrap;html=1;align=center;fontStyle=4;" vertex="1" parent="1">
          <mxGeometry x="50" y="260" width="100" height="40" as="geometry" />
        </mxCell>
        <mxCell id="U4yKZaJeTP_GyFQ07LBx-38" style="edgeStyle=none;rounded=0;orthogonalLoop=1;jettySize=auto;html=1;exitX=1;exitY=0.5;exitDx=0;exitDy=0;entryX=0;entryY=0.5;entryDx=0;entryDy=0;endArrow=none;endFill=0;" edge="1" parent="1" source="U4yKZaJeTP_GyFQ07LBx-9" target="U4yKZaJeTP_GyFQ07LBx-1">
          <mxGeometry relative="1" as="geometry" />
        </mxCell>
        <mxCell id="U4yKZaJeTP_GyFQ07LBx-9" value="nombre" style="ellipse;whiteSpace=wrap;html=1;align=center;" vertex="1" parent="1">
          <mxGeometry x="30" y="310" width="100" height="40" as="geometry" />
        </mxCell>
        <mxCell id="U4yKZaJeTP_GyFQ07LBx-39" style="edgeStyle=none;rounded=0;orthogonalLoop=1;jettySize=auto;html=1;exitX=1;exitY=0.5;exitDx=0;exitDy=0;entryX=0;entryY=1;entryDx=0;entryDy=0;endArrow=none;endFill=0;" edge="1" parent="1" source="U4yKZaJeTP_GyFQ07LBx-10" target="U4yKZaJeTP_GyFQ07LBx-1">
          <mxGeometry relative="1" as="geometry" />
        </mxCell>
        <mxCell id="U4yKZaJeTP_GyFQ07LBx-10" value="direccion" style="ellipse;whiteSpace=wrap;html=1;align=center;" vertex="1" parent="1">
          <mxGeometry x="50" y="370" width="100" height="40" as="geometry" />
        </mxCell>
        <mxCell id="U4yKZaJeTP_GyFQ07LBx-49" style="edgeStyle=none;rounded=0;orthogonalLoop=1;jettySize=auto;html=1;exitX=0;exitY=0.5;exitDx=0;exitDy=0;entryX=1;entryY=0.5;entryDx=0;entryDy=0;endArrow=none;endFill=0;" edge="1" parent="1" source="U4yKZaJeTP_GyFQ07LBx-12" target="U4yKZaJeTP_GyFQ07LBx-19">
          <mxGeometry relative="1" as="geometry" />
        </mxCell>
        <mxCell id="U4yKZaJeTP_GyFQ07LBx-12" value="rut" style="ellipse;whiteSpace=wrap;html=1;align=center;fontStyle=4;" vertex="1" parent="1">
          <mxGeometry x="680" y="520" width="100" height="40" as="geometry" />
        </mxCell>
        <mxCell id="U4yKZaJeTP_GyFQ07LBx-44" style="edgeStyle=none;rounded=0;orthogonalLoop=1;jettySize=auto;html=1;exitX=0.5;exitY=1;exitDx=0;exitDy=0;entryX=0.68;entryY=0.045;entryDx=0;entryDy=0;entryPerimeter=0;endArrow=none;endFill=0;" edge="1" parent="1" source="U4yKZaJeTP_GyFQ07LBx-13" target="U4yKZaJeTP_GyFQ07LBx-2">
          <mxGeometry relative="1" as="geometry" />
        </mxCell>
        <mxCell id="U4yKZaJeTP_GyFQ07LBx-13" value="codigo" style="ellipse;whiteSpace=wrap;html=1;align=center;fontStyle=4;" vertex="1" parent="1">
          <mxGeometry x="580" y="260" width="100" height="40" as="geometry" />
        </mxCell>
        <mxCell id="U4yKZaJeTP_GyFQ07LBx-45" style="edgeStyle=none;rounded=0;orthogonalLoop=1;jettySize=auto;html=1;exitX=0;exitY=0.5;exitDx=0;exitDy=0;entryX=1;entryY=0.25;entryDx=0;entryDy=0;endArrow=none;endFill=0;" edge="1" parent="1" source="U4yKZaJeTP_GyFQ07LBx-14" target="U4yKZaJeTP_GyFQ07LBx-2">
          <mxGeometry relative="1" as="geometry" />
        </mxCell>
        <mxCell id="U4yKZaJeTP_GyFQ07LBx-14" value="descripcion" style="ellipse;whiteSpace=wrap;html=1;align=center;" vertex="1" parent="1">
          <mxGeometry x="690" y="300" width="100" height="40" as="geometry" />
        </mxCell>
        <mxCell id="U4yKZaJeTP_GyFQ07LBx-21" style="edgeStyle=none;rounded=0;orthogonalLoop=1;jettySize=auto;html=1;exitX=1;exitY=0.5;exitDx=0;exitDy=0;entryX=0;entryY=0.5;entryDx=0;entryDy=0;endArrow=none;endFill=0;" edge="1" parent="1" source="U4yKZaJeTP_GyFQ07LBx-15" target="U4yKZaJeTP_GyFQ07LBx-20">
          <mxGeometry relative="1" as="geometry" />
        </mxCell>
        <mxCell id="U4yKZaJeTP_GyFQ07LBx-15" value="Consulta" style="rounded=1;arcSize=10;whiteSpace=wrap;html=1;align=center;" vertex="1" parent="1">
          <mxGeometry x="170" y="550" width="100" height="40" as="geometry" />
        </mxCell>
        <mxCell id="U4yKZaJeTP_GyFQ07LBx-18" style="edgeStyle=none;rounded=0;orthogonalLoop=1;jettySize=auto;html=1;exitX=0.5;exitY=1;exitDx=0;exitDy=0;entryX=0.5;entryY=0;entryDx=0;entryDy=0;endArrow=none;endFill=0;" edge="1" parent="1" source="U4yKZaJeTP_GyFQ07LBx-16" target="U4yKZaJeTP_GyFQ07LBx-15">
          <mxGeometry relative="1" as="geometry" />
        </mxCell>
        <mxCell id="U4yKZaJeTP_GyFQ07LBx-16" value="realiza" style="shape=rhombus;double=1;perimeter=rhombusPerimeter;whiteSpace=wrap;html=1;align=center;" vertex="1" parent="1">
          <mxGeometry x="160" y="430" width="120" height="60" as="geometry" />
        </mxCell>
        <mxCell id="U4yKZaJeTP_GyFQ07LBx-19" value="Paciente" style="rounded=1;arcSize=10;whiteSpace=wrap;html=1;align=center;" vertex="1" parent="1">
          <mxGeometry x="540" y="550" width="100" height="40" as="geometry" />
        </mxCell>
        <mxCell id="U4yKZaJeTP_GyFQ07LBx-22" style="edgeStyle=none;rounded=0;orthogonalLoop=1;jettySize=auto;html=1;exitX=1;exitY=0.5;exitDx=0;exitDy=0;entryX=0;entryY=0.5;entryDx=0;entryDy=0;endArrow=none;endFill=0;" edge="1" parent="1" source="U4yKZaJeTP_GyFQ07LBx-20" target="U4yKZaJeTP_GyFQ07LBx-19">
          <mxGeometry relative="1" as="geometry" />
        </mxCell>
        <mxCell id="U4yKZaJeTP_GyFQ07LBx-20" value="agenda" style="shape=rhombus;double=1;perimeter=rhombusPerimeter;whiteSpace=wrap;html=1;align=center;" vertex="1" parent="1">
          <mxGeometry x="330" y="540" width="120" height="60" as="geometry" />
        </mxCell>
        <mxCell id="U4yKZaJeTP_GyFQ07LBx-47" style="edgeStyle=none;rounded=0;orthogonalLoop=1;jettySize=auto;html=1;exitX=1;exitY=0;exitDx=0;exitDy=0;entryX=0;entryY=1;entryDx=0;entryDy=0;endArrow=none;endFill=0;" edge="1" parent="1" source="U4yKZaJeTP_GyFQ07LBx-23" target="U4yKZaJeTP_GyFQ07LBx-15">
          <mxGeometry relative="1" as="geometry" />
        </mxCell>
        <mxCell id="U4yKZaJeTP_GyFQ07LBx-23" value="hora_atencion" style="ellipse;whiteSpace=wrap;html=1;align=center;" vertex="1" parent="1">
          <mxGeometry x="50" y="620" width="100" height="40" as="geometry" />
        </mxCell>
        <mxCell id="U4yKZaJeTP_GyFQ07LBx-46" style="edgeStyle=none;rounded=0;orthogonalLoop=1;jettySize=auto;html=1;exitX=1;exitY=0.5;exitDx=0;exitDy=0;entryX=0;entryY=0.5;entryDx=0;entryDy=0;endArrow=none;endFill=0;" edge="1" parent="1" source="U4yKZaJeTP_GyFQ07LBx-24" target="U4yKZaJeTP_GyFQ07LBx-15">
          <mxGeometry relative="1" as="geometry" />
        </mxCell>
        <mxCell id="U4yKZaJeTP_GyFQ07LBx-24" value="fecha_atencion" style="ellipse;whiteSpace=wrap;html=1;align=center;" vertex="1" parent="1">
          <mxGeometry x="40" y="550" width="100" height="40" as="geometry" />
        </mxCell>
        <mxCell id="U4yKZaJeTP_GyFQ07LBx-48" style="edgeStyle=none;rounded=0;orthogonalLoop=1;jettySize=auto;html=1;exitX=0.5;exitY=0;exitDx=0;exitDy=0;entryX=0.5;entryY=1;entryDx=0;entryDy=0;endArrow=none;endFill=0;" edge="1" parent="1" source="U4yKZaJeTP_GyFQ07LBx-25" target="U4yKZaJeTP_GyFQ07LBx-15">
          <mxGeometry relative="1" as="geometry" />
        </mxCell>
        <mxCell id="U4yKZaJeTP_GyFQ07LBx-25" value="consultorio" style="ellipse;whiteSpace=wrap;html=1;align=center;" vertex="1" parent="1">
          <mxGeometry x="170" y="630" width="100" height="40" as="geometry" />
        </mxCell>
        <mxCell id="U4yKZaJeTP_GyFQ07LBx-50" style="edgeStyle=none;rounded=0;orthogonalLoop=1;jettySize=auto;html=1;exitX=0;exitY=0.5;exitDx=0;exitDy=0;entryX=1;entryY=0.75;entryDx=0;entryDy=0;endArrow=none;endFill=0;" edge="1" parent="1" source="U4yKZaJeTP_GyFQ07LBx-26" target="U4yKZaJeTP_GyFQ07LBx-19">
          <mxGeometry relative="1" as="geometry" />
        </mxCell>
        <mxCell id="U4yKZaJeTP_GyFQ07LBx-26" value="nombre" style="ellipse;whiteSpace=wrap;html=1;align=center;" vertex="1" parent="1">
          <mxGeometry x="690" y="580" width="100" height="40" as="geometry" />
        </mxCell>
        <mxCell id="U4yKZaJeTP_GyFQ07LBx-51" style="edgeStyle=none;rounded=0;orthogonalLoop=1;jettySize=auto;html=1;exitX=0.5;exitY=0;exitDx=0;exitDy=0;entryX=0.75;entryY=1;entryDx=0;entryDy=0;endArrow=none;endFill=0;" edge="1" parent="1" source="U4yKZaJeTP_GyFQ07LBx-27" target="U4yKZaJeTP_GyFQ07LBx-19">
          <mxGeometry relative="1" as="geometry" />
        </mxCell>
        <mxCell id="U4yKZaJeTP_GyFQ07LBx-27" value="direccion" style="ellipse;whiteSpace=wrap;html=1;align=center;" vertex="1" parent="1">
          <mxGeometry x="600" y="630" width="100" height="40" as="geometry" />
        </mxCell>
        <mxCell id="U4yKZaJeTP_GyFQ07LBx-28" value="Licencia" style="rounded=1;arcSize=10;whiteSpace=wrap;html=1;align=center;" vertex="1" parent="1">
          <mxGeometry x="170" y="120" width="100" height="40" as="geometry" />
        </mxCell>
        <mxCell id="U4yKZaJeTP_GyFQ07LBx-32" style="edgeStyle=none;rounded=0;orthogonalLoop=1;jettySize=auto;html=1;exitX=0.5;exitY=0;exitDx=0;exitDy=0;entryX=0.5;entryY=1;entryDx=0;entryDy=0;endArrow=none;endFill=0;" edge="1" parent="1" source="U4yKZaJeTP_GyFQ07LBx-29" target="U4yKZaJeTP_GyFQ07LBx-28">
          <mxGeometry relative="1" as="geometry" />
        </mxCell>
        <mxCell id="U4yKZaJeTP_GyFQ07LBx-29" value="entrega" style="shape=rhombus;double=1;perimeter=rhombusPerimeter;whiteSpace=wrap;html=1;align=center;" vertex="1" parent="1">
          <mxGeometry x="160" y="220" width="120" height="60" as="geometry" />
        </mxCell>
        <mxCell id="U4yKZaJeTP_GyFQ07LBx-40" style="edgeStyle=none;rounded=0;orthogonalLoop=1;jettySize=auto;html=1;exitX=1;exitY=0.5;exitDx=0;exitDy=0;entryX=0;entryY=0;entryDx=0;entryDy=0;endArrow=none;endFill=0;" edge="1" parent="1" source="U4yKZaJeTP_GyFQ07LBx-33" target="U4yKZaJeTP_GyFQ07LBx-28">
          <mxGeometry relative="1" as="geometry" />
        </mxCell>
        <mxCell id="U4yKZaJeTP_GyFQ07LBx-33" value="codigo" style="ellipse;whiteSpace=wrap;html=1;align=center;fontStyle=4;" vertex="1" parent="1">
          <mxGeometry x="50" y="100" width="100" height="40" as="geometry" />
        </mxCell>
        <mxCell id="U4yKZaJeTP_GyFQ07LBx-41" style="edgeStyle=none;rounded=0;orthogonalLoop=1;jettySize=auto;html=1;exitX=0.5;exitY=1;exitDx=0;exitDy=0;entryX=0.25;entryY=0;entryDx=0;entryDy=0;endArrow=none;endFill=0;" edge="1" parent="1" source="U4yKZaJeTP_GyFQ07LBx-34" target="U4yKZaJeTP_GyFQ07LBx-28">
          <mxGeometry relative="1" as="geometry" />
        </mxCell>
        <mxCell id="U4yKZaJeTP_GyFQ07LBx-34" value="diagnostico" style="ellipse;whiteSpace=wrap;html=1;align=center;" vertex="1" parent="1">
          <mxGeometry x="120" y="40" width="100" height="40" as="geometry" />
        </mxCell>
        <mxCell id="U4yKZaJeTP_GyFQ07LBx-42" style="edgeStyle=none;rounded=0;orthogonalLoop=1;jettySize=auto;html=1;exitX=0.5;exitY=1;exitDx=0;exitDy=0;entryX=0.5;entryY=0;entryDx=0;entryDy=0;endArrow=none;endFill=0;" edge="1" parent="1" source="U4yKZaJeTP_GyFQ07LBx-35" target="U4yKZaJeTP_GyFQ07LBx-28">
          <mxGeometry relative="1" as="geometry" />
        </mxCell>
        <mxCell id="U4yKZaJeTP_GyFQ07LBx-35" value="fecha_ini" style="ellipse;whiteSpace=wrap;html=1;align=center;" vertex="1" parent="1">
          <mxGeometry x="230" y="60" width="100" height="40" as="geometry" />
        </mxCell>
        <mxCell id="U4yKZaJeTP_GyFQ07LBx-43" style="edgeStyle=none;rounded=0;orthogonalLoop=1;jettySize=auto;html=1;exitX=0;exitY=0.5;exitDx=0;exitDy=0;entryX=1;entryY=0.5;entryDx=0;entryDy=0;endArrow=none;endFill=0;" edge="1" parent="1" source="U4yKZaJeTP_GyFQ07LBx-36" target="U4yKZaJeTP_GyFQ07LBx-28">
          <mxGeometry relative="1" as="geometry" />
        </mxCell>
        <mxCell id="U4yKZaJeTP_GyFQ07LBx-36" value="fecha_fin" style="ellipse;whiteSpace=wrap;html=1;align=center;" vertex="1" parent="1">
          <mxGeometry x="300" y="120" width="100" height="40" as="geometry" />
        </mxCell>
        <mxCell id="U4yKZaJeTP_GyFQ07LBx-52" value="(1,1)" style="text;html=1;align=center;verticalAlign=middle;resizable=0;points=[];autosize=1;strokeColor=none;fillColor=none;" vertex="1" parent="1">
          <mxGeometry x="270" y="330" width="40" height="20" as="geometry" />
        </mxCell>
        <mxCell id="U4yKZaJeTP_GyFQ07LBx-53" value="(1,N)" style="text;html=1;align=center;verticalAlign=middle;resizable=0;points=[];autosize=1;strokeColor=none;fillColor=none;" vertex="1" parent="1">
          <mxGeometry x="510" y="330" width="40" height="20" as="geometry" />
        </mxCell>
        <mxCell id="U4yKZaJeTP_GyFQ07LBx-54" value="(N,1)" style="text;html=1;align=center;verticalAlign=middle;resizable=0;points=[];autosize=1;strokeColor=none;fillColor=none;" vertex="1" parent="1">
          <mxGeometry x="405" y="300" width="40" height="20" as="geometry" />
        </mxCell>
        <mxCell id="U4yKZaJeTP_GyFQ07LBx-55" value="(1,N)" style="text;html=1;align=center;verticalAlign=middle;resizable=0;points=[];autosize=1;strokeColor=none;fillColor=none;" vertex="1" parent="1">
          <mxGeometry x="215" y="370" width="40" height="20" as="geometry" />
        </mxCell>
        <mxCell id="U4yKZaJeTP_GyFQ07LBx-56" value="(1,1)" style="text;html=1;align=center;verticalAlign=middle;resizable=0;points=[];autosize=1;strokeColor=none;fillColor=none;" vertex="1" parent="1">
          <mxGeometry x="210" y="530" width="40" height="20" as="geometry" />
        </mxCell>
        <mxCell id="U4yKZaJeTP_GyFQ07LBx-57" value="(1,N)" style="text;html=1;align=center;verticalAlign=middle;resizable=0;points=[];autosize=1;strokeColor=none;fillColor=none;" vertex="1" parent="1">
          <mxGeometry x="270" y="450" width="40" height="20" as="geometry" />
        </mxCell>
        <mxCell id="U4yKZaJeTP_GyFQ07LBx-58" value="(1,N)" style="text;html=1;align=center;verticalAlign=middle;resizable=0;points=[];autosize=1;strokeColor=none;fillColor=none;" vertex="1" parent="1">
          <mxGeometry x="500" y="550" width="40" height="20" as="geometry" />
        </mxCell>
        <mxCell id="U4yKZaJeTP_GyFQ07LBx-59" value="(1,N)" style="text;html=1;align=center;verticalAlign=middle;resizable=0;points=[];autosize=1;strokeColor=none;fillColor=none;" vertex="1" parent="1">
          <mxGeometry x="260" y="550" width="40" height="20" as="geometry" />
        </mxCell>
        <mxCell id="U4yKZaJeTP_GyFQ07LBx-60" value="(N,N)" style="text;html=1;align=center;verticalAlign=middle;resizable=0;points=[];autosize=1;strokeColor=none;fillColor=none;" vertex="1" parent="1">
          <mxGeometry x="370" y="510" width="40" height="20" as="geometry" />
        </mxCell>
        <mxCell id="U4yKZaJeTP_GyFQ07LBx-61" value="(1,N)" style="text;html=1;align=center;verticalAlign=middle;resizable=0;points=[];autosize=1;strokeColor=none;fillColor=none;" vertex="1" parent="1">
          <mxGeometry x="220" y="310" width="40" height="20" as="geometry" />
        </mxCell>
        <mxCell id="U4yKZaJeTP_GyFQ07LBx-62" value="(0,1)" style="text;html=1;align=center;verticalAlign=middle;resizable=0;points=[];autosize=1;strokeColor=none;fillColor=none;" vertex="1" parent="1">
          <mxGeometry x="220" y="160" width="40" height="20" as="geometry" />
        </mxCell>
        <mxCell id="U4yKZaJeTP_GyFQ07LBx-63" value="(1,N)" style="text;html=1;align=center;verticalAlign=middle;resizable=0;points=[];autosize=1;strokeColor=none;fillColor=none;" vertex="1" parent="1">
          <mxGeometry x="280" y="240" width="40" height="20" as="geometry" />
        </mxCell>
      </root>
    </mxGraphModel>
  </diagram>
</mxfile>
